<svg width="151" height="47" viewBox="0 0 151 47" fill="none" xmlns="http://www.w3.org/2000/svg">
<path d="M151 32.7731V23.2514C151 21.5309 150.814 19.9376 150.431 18.4622C150.058 16.9869 149.471 15.6863 148.684 14.5787C147.891 13.4619 146.889 12.5858 145.662 11.9661C144.436 11.3442 142.973 11.0242 141.288 11.0151C140.082 11.0151 138.912 11.199 137.793 11.5576C136.665 11.9253 135.636 12.4814 134.694 13.2168C133.76 13.9659 132.979 14.8987 132.339 16.0245V0H129.924V32.7731H132.339V23.0767C132.348 21.3471 132.612 19.8513 133.123 18.5984C133.625 17.3455 134.301 16.3263 135.145 15.5206C135.98 14.7148 136.911 14.1225 137.931 13.7434C138.94 13.353 139.962 13.1692 140.992 13.1692C142.592 13.1783 143.956 13.5595 145.082 14.3063C146.21 15.0644 147.077 16.1426 147.675 17.5498C148.281 18.948 148.586 20.639 148.586 22.6091V32.7731H151ZM104.983 32.7731C104.864 32.4372 104.752 32.0877 104.651 31.7313C104.199 30.1175 103.963 28.3403 103.963 26.3996C103.963 24.4385 104.199 22.6477 104.651 21.0362C105.103 19.4247 105.758 18.0241 106.602 16.8506C107.457 15.6862 108.468 14.7716 109.654 14.1406C110.83 13.5005 112.158 13.1783 113.618 13.1692C115.267 13.1783 116.739 13.5982 118.043 14.404C119.339 15.2188 120.476 16.3649 121.448 17.8312L123.45 16.4353C122.351 14.7057 120.976 13.3734 119.327 12.4315C117.669 11.4986 115.766 11.0242 113.618 11.0151C111.743 11.0242 110.057 11.3919 108.555 12.1318C107.063 12.8672 105.779 13.9181 104.72 15.2777C103.658 16.6373 102.844 18.2489 102.287 20.135C101.727 22.0167 101.441 24.1049 101.432 26.3996C101.441 28.6898 101.727 30.778 102.287 32.6551L102.324 32.7731H104.983ZM95.1333 32.7731V23.2514C95.1333 21.5309 94.9477 19.9376 94.5648 18.4622C94.191 16.9869 93.6041 15.6863 92.8177 14.5787C92.022 13.4619 91.0223 12.5858 89.7957 11.9661C88.569 11.3442 87.1085 11.0242 85.4187 11.0151C84.215 11.0151 83.0457 11.199 81.9268 11.5576C80.801 11.9253 79.7692 12.4814 78.8246 13.2168C77.8937 13.9659 77.1095 14.8987 76.4721 16.0245V11.771H74.0579V32.7731H76.4721V23.0767C76.4813 21.3471 76.745 19.8513 77.2563 18.5984C77.7768 17.3455 78.4532 16.3263 79.3061 15.5206C80.1522 14.7239 81.0922 14.1225 82.1148 13.7434C83.1328 13.353 84.1531 13.1692 85.1849 13.1692C86.7852 13.1783 88.138 13.5595 89.2569 14.3063C90.3758 15.0644 91.2379 16.1426 91.8271 17.5498C92.4141 18.948 92.7191 20.639 92.7191 22.6091V32.7731H95.1333ZM65.5217 32.7731V21.1542C65.5125 19.3679 65.2259 17.8313 64.6688 16.5398C64.1093 15.2573 63.355 14.2109 62.4012 13.3915C61.4519 12.5767 60.3721 11.9753 59.1637 11.5849C57.9577 11.199 56.7012 11.0151 55.3943 11.0151C53.9545 11.0151 52.5604 11.2466 51.2145 11.6846C49.8733 12.1318 48.6558 12.772 47.5667 13.6072C46.4776 14.4312 45.5948 15.4321 44.9162 16.6101L46.8009 18.006C47.4773 16.9188 48.2729 16.0154 49.1762 15.2959C50.0773 14.5877 51.0403 14.0543 52.0606 13.6934C53.0809 13.3439 54.0921 13.1692 55.1032 13.1692C56.151 13.1692 57.1621 13.3439 58.1136 13.6844C59.0766 14.0135 59.9295 14.5083 60.6747 15.162C61.4222 15.8134 62.0091 16.6101 62.4516 17.5385C62.8827 18.4827 63.0982 19.5517 63.1097 20.7433V24.7677C61.922 24.2411 60.6862 23.8438 59.4091 23.5806C58.1251 23.3218 56.848 23.1947 55.5709 23.1947C53.9544 23.1947 52.4045 23.3967 50.9326 23.8053C49.4606 24.2025 48.1445 24.8244 46.9866 25.6506C45.831 26.4767 44.907 27.5163 44.2398 28.7783C43.6231 29.9222 43.2906 31.2569 43.2241 32.7731H45.7485C45.7852 31.6722 46.0465 30.685 46.5395 29.7975C47.0577 28.8555 47.7731 28.0588 48.6971 27.3983C49.6096 26.7287 50.6665 26.2248 51.8749 25.8753C53.0809 25.5234 54.3763 25.3487 55.7497 25.3487C56.7012 25.3487 57.623 25.4282 58.5378 25.5939C59.4389 25.7482 60.2941 25.9706 61.0667 26.2521C61.8532 26.5449 62.5296 26.8853 63.1097 27.2711V32.7731H65.5217ZM36.912 32.7731V23.2514C36.912 21.5309 36.7355 19.9376 36.3824 18.4622C36.027 16.9869 35.479 15.6863 34.743 14.5787C34.007 13.4619 33.0647 12.5858 31.9183 11.9661C30.781 11.3442 29.4168 11.0242 27.8462 11.0151C26.56 11.0151 25.3516 11.2376 24.2052 11.7029C23.0565 12.1705 22.0271 12.8673 21.1054 13.8206C20.1928 14.7625 19.4385 15.9678 18.8377 17.425C18.425 16.1517 17.8587 15.0348 17.1204 14.0724C16.3867 13.1214 15.4719 12.3724 14.3943 11.83C13.3144 11.2943 12.0487 11.0242 10.5974 11.0151C9.49685 11.0151 8.43987 11.1786 7.42645 11.5281C6.41761 11.8686 5.49362 12.3815 4.64069 13.0829C3.78776 13.782 3.04258 14.665 2.41435 15.734V11.771H0V32.7731H2.41435V23.0767C2.42352 21.3471 2.66883 19.8513 3.13197 18.5984C3.602 17.3455 4.22109 16.3263 4.99376 15.5206C5.76873 14.7239 6.62167 14.1225 7.55485 13.7434C8.48802 13.353 9.42121 13.1692 10.3636 13.1692C11.8241 13.1783 13.0599 13.5595 14.0802 14.3063C15.1097 15.0644 15.8961 16.1426 16.4349 17.5498C16.976 18.948 17.2488 20.639 17.2488 22.6091V32.7731H19.6632V22.7272C19.6632 21.4448 19.8489 20.2395 20.2226 19.0933C20.5849 17.9493 21.1146 16.9392 21.8001 16.0449C22.4994 15.162 23.334 14.4606 24.3038 13.9476C25.2851 13.4415 26.3857 13.1783 27.6101 13.1692C29.0706 13.1783 30.3087 13.5595 31.329 14.3063C32.3607 15.0644 33.1449 16.1426 33.6837 17.5498C34.2225 18.948 34.4977 20.639 34.4977 22.6091V32.7731H36.912Z" fill="black"/>
<path d="M98.0428 45.6767C98.3867 45.9014 98.9943 46.1353 99.5767 46.1353C100.42 46.1353 100.815 45.7175 100.815 45.1932C100.815 44.6462 100.485 44.3444 99.6271 44.0312C98.4784 43.6272 97.9396 42.9984 97.9396 42.2403C97.9396 41.2212 98.7696 40.3837 100.143 40.3837C100.79 40.3837 101.358 40.5675 101.714 40.7763L101.422 41.6117C101.172 41.455 100.712 41.2462 100.115 41.2462C99.4299 41.2462 99.0447 41.6389 99.0447 42.1087C99.0447 42.6308 99.4299 42.8667 100.262 43.1822C101.372 43.5976 101.938 44.1492 101.938 45.0911C101.938 46.201 101.067 46.9864 99.5491 46.9864C98.8475 46.9864 98.201 46.8161 97.7516 46.5528L98.0428 45.6767Z" fill="black"/>
<path d="M146.887 45.6767C147.231 45.9014 147.836 46.1353 148.418 46.1353C149.262 46.1353 149.659 45.7175 149.659 45.1932C149.659 44.6462 149.329 44.3444 148.469 44.0312C147.32 43.6272 146.781 42.9984 146.781 42.2403C146.781 41.2212 147.611 40.3837 148.987 40.3837C149.634 40.3837 150.2 40.5675 150.555 40.7763L150.264 41.6117C150.014 41.455 149.553 41.2462 148.957 41.2462C148.272 41.2462 147.889 41.6389 147.889 42.1087C147.889 42.6308 148.272 42.8667 149.104 43.1822C150.214 43.5976 150.782 44.1492 150.782 45.0911C150.782 46.201 149.909 46.9864 148.391 46.9864C147.692 46.9864 147.045 46.8161 146.596 46.5528L146.887 45.6767Z" fill="black"/>
<path d="M107.473 38.7109V40.5266H109.135V41.4051H107.473V44.8165C107.473 45.5996 107.696 46.0444 108.344 46.0444C108.647 46.0444 108.872 46.0036 109.016 45.965L109.071 46.8297C108.844 46.9205 108.489 46.9864 108.039 46.9864C107.498 46.9864 107.063 46.8139 106.788 46.5029C106.455 46.1602 106.338 45.5995 106.338 44.855V41.4051H105.348V40.5266H106.338V39.0127L107.473 38.7109Z" fill="black"/>
<path d="M118.435 45.1298C118.435 45.7835 118.449 46.3576 118.488 46.8525H117.456L117.39 45.822H117.364C117.06 46.3305 116.388 46.9978 115.253 46.9978C114.248 46.9978 113.045 46.4507 113.045 44.2264V40.5266H114.207V44.0312C114.207 45.2319 114.579 46.0422 115.633 46.0422C116.413 46.0422 116.954 45.5087 117.167 44.998C117.231 44.8301 117.27 44.619 117.27 44.4102V40.5266H118.435V45.1298Z" fill="black"/>
<path d="M127.361 43.1027C127.361 42.9597 127.347 42.7622 127.308 42.6192C127.136 41.8861 126.504 41.2869 125.632 41.2869C124.429 41.2869 123.718 42.331 123.718 43.7292C123.718 45.0116 124.351 46.0715 125.605 46.0715C126.384 46.0715 127.097 45.5586 127.308 44.6984C127.347 44.5418 127.361 44.3829 127.361 44.2013V43.1027ZM128.524 37.5713V45.2204C128.524 45.7833 128.537 46.4234 128.576 46.8547H127.533L127.48 45.7583H127.455C127.097 46.4619 126.318 46.9976 125.275 46.9976C123.732 46.9976 122.542 45.7039 122.542 43.7814C122.528 41.6773 123.851 40.3835 125.408 40.3835C126.384 40.3835 127.045 40.8419 127.336 41.3504H127.361V37.5713H128.524Z" fill="black"/>
<path d="M133.093 40.5266H134.256V46.8548H133.093V40.5266ZM134.388 38.7494C134.402 39.142 134.111 39.4554 133.648 39.4554C133.24 39.4554 132.949 39.142 132.949 38.7494C132.949 38.3454 133.254 38.0322 133.673 38.0322C134.111 38.0322 134.388 38.3454 134.388 38.7494Z" fill="black"/>
<path d="M139.538 43.7044C139.538 45.0912 140.343 46.1353 141.48 46.1353C142.588 46.1353 143.42 45.1047 143.42 43.6793C143.42 42.6057 142.879 41.2484 141.505 41.2484C140.134 41.2484 139.538 42.5037 139.538 43.7044ZM144.61 43.6408C144.61 45.9786 142.971 47 141.427 47C139.696 47 138.364 45.7448 138.364 43.7429C138.364 41.6252 139.765 40.3837 141.533 40.3837C143.369 40.3837 144.61 41.7047 144.61 43.6408Z" fill="black"/>
</svg>
