<svg width="229" height="122" viewBox="0 0 229 122" fill="none" xmlns="http://www.w3.org/2000/svg">
<g clip-path="url(#clip0_7_135)">
<path d="M229 108.387V99.6109C229 98.0251 228.831 96.5565 228.482 95.1967C228.142 93.8368 227.608 92.6381 226.892 91.6172C226.17 90.5879 225.258 89.7804 224.142 89.2092C223.025 88.636 221.694 88.341 220.16 88.3326C219.062 88.3326 217.998 88.5021 216.979 88.8327C215.953 89.1716 215.016 89.6842 214.158 90.362C213.308 91.0524 212.597 91.9122 212.015 92.9499V78.18H209.817V108.387H212.015V99.4499C212.023 97.8557 212.263 96.477 212.728 95.3222C213.185 94.1674 213.801 93.228 214.569 92.4853C215.329 91.7427 216.176 91.1967 217.105 90.8473C218.023 90.4875 218.954 90.3181 219.891 90.3181C221.347 90.3264 222.589 90.6779 223.614 91.3661C224.64 92.0649 225.429 93.0586 225.974 94.3557C226.525 95.6444 226.803 97.203 226.803 99.0189V108.387H229ZM187.116 108.387C187.007 108.077 186.905 107.755 186.813 107.427C186.402 105.939 186.187 104.301 186.187 102.513C186.187 100.705 186.402 99.0545 186.813 97.5691C187.224 96.0838 187.821 94.7929 188.589 93.7113C189.367 92.638 190.288 91.795 191.367 91.2134C192.437 90.6235 193.645 90.3264 194.975 90.3181C196.475 90.3264 197.815 90.7135 199.003 91.4562C200.182 92.2072 201.217 93.2636 202.102 94.615L203.924 93.3285C202.924 91.7343 201.672 90.5063 200.171 89.6381C198.662 88.7783 196.93 88.341 194.975 88.3326C193.268 88.341 191.734 88.6799 190.367 89.3619C189.008 90.0398 187.84 91.0084 186.875 92.2615C185.909 93.5146 185.168 95 184.661 96.7385C184.152 98.4728 183.891 100.398 183.883 102.513C183.891 104.623 184.152 106.548 184.661 108.278L184.695 108.387H187.116ZM178.15 108.387V99.6109C178.15 98.0251 177.981 96.5565 177.633 95.1967C177.292 93.8368 176.758 92.6381 176.042 91.6172C175.318 90.5879 174.408 89.7804 173.292 89.2092C172.175 88.636 170.846 88.341 169.308 88.3326C168.212 88.3326 167.148 88.5021 166.129 88.8327C165.105 89.1716 164.166 89.6842 163.306 90.362C162.458 91.0524 161.745 91.9122 161.165 92.9499V89.0293H158.967V108.387H161.165V99.4499C161.173 97.8557 161.413 96.477 161.878 95.3222C162.352 94.1674 162.968 93.228 163.744 92.4853C164.514 91.751 165.37 91.1967 166.301 90.8473C167.227 90.4875 168.156 90.3181 169.095 90.3181C170.552 90.3264 171.783 90.6779 172.801 91.3661C173.82 92.0649 174.604 93.0586 175.141 94.3557C175.675 95.6444 175.953 97.203 175.953 99.0189V108.387H178.15ZM151.197 108.387V97.6779C151.189 96.0315 150.928 94.6151 150.421 93.4247C149.912 92.2427 149.225 91.2782 148.357 90.523C147.493 89.772 146.51 89.2177 145.41 88.8578C144.313 88.5022 143.169 88.3326 141.98 88.3326C140.669 88.3326 139.4 88.546 138.175 88.9498C136.954 89.3619 135.846 89.9519 134.855 90.7218C133.864 91.4812 133.06 92.4038 132.442 93.4896L134.158 94.7762C134.773 93.7741 135.498 92.9414 136.32 92.2782C137.14 91.6255 138.017 91.1339 138.945 90.8012C139.874 90.4791 140.794 90.3181 141.715 90.3181C142.668 90.3181 143.589 90.4791 144.455 90.7929C145.331 91.0963 146.107 91.5524 146.786 92.1549C147.466 92.7553 148 93.4896 148.403 94.3452C148.795 95.2155 148.992 96.2009 149.002 97.2992V101.008C147.921 100.523 146.796 100.157 145.634 99.9143C144.465 99.6758 143.303 99.5586 142.14 99.5586C140.669 99.5586 139.258 99.7448 137.918 100.121C136.579 100.487 135.381 101.061 134.327 101.822C133.275 102.584 132.434 103.542 131.827 104.705C131.265 105.759 130.963 106.99 130.902 108.387H133.2C133.233 107.372 133.471 106.462 133.92 105.644C134.391 104.776 135.043 104.042 135.884 103.433C136.714 102.816 137.676 102.351 138.776 102.029C139.874 101.705 141.053 101.544 142.303 101.544C143.169 101.544 144.008 101.617 144.841 101.77C145.661 101.912 146.439 102.117 147.143 102.377C147.858 102.646 148.474 102.96 149.002 103.316V108.387H151.197ZM125.157 108.387V99.6109C125.157 98.0251 124.996 96.5565 124.675 95.1967C124.351 93.8368 123.853 92.6381 123.183 91.6172C122.513 90.5879 121.655 89.7804 120.612 89.2092C119.576 88.636 118.335 88.341 116.905 88.3326C115.734 88.3326 114.635 88.5377 113.591 88.9666C112.546 89.3976 111.609 90.0398 110.77 90.9185C109.939 91.7867 109.252 92.8976 108.706 94.2407C108.33 93.067 107.815 92.0376 107.143 91.1506C106.475 90.274 105.642 89.5837 104.661 89.0837C103.678 88.59 102.526 88.341 101.205 88.3326C100.204 88.3326 99.2415 88.4833 98.3191 88.8055C97.4008 89.1193 96.5598 89.5921 95.7835 90.2385C95.0071 90.8829 94.3289 91.6967 93.7571 92.6821V89.0293H91.5595V108.387H93.7571V99.4499C93.7654 97.8557 93.9887 96.477 94.4102 95.3222C94.8381 94.1674 95.4016 93.228 96.1048 92.4853C96.8102 91.751 97.5866 91.1967 98.4359 90.8473C99.2853 90.4875 100.135 90.3181 100.992 90.3181C102.322 90.3264 103.447 90.6779 104.375 91.3661C105.312 92.0649 106.028 93.0586 106.519 94.3557C107.011 95.6444 107.259 97.203 107.259 99.0189V108.387H109.457V99.1277C109.457 97.9457 109.626 96.8348 109.966 95.7783C110.296 94.7239 110.778 93.7929 111.402 92.9686C112.039 92.1548 112.798 91.5084 113.681 91.0356C114.574 90.569 115.576 90.3264 116.69 90.3181C118.02 90.3264 119.147 90.6779 120.075 91.3661C121.014 92.0649 121.728 93.0586 122.218 94.3557C122.709 95.6444 122.959 97.203 122.959 99.0189V108.387H125.157Z" fill="black"/>
<path fill-rule="evenodd" clip-rule="evenodd" d="M16.0901 76.2279C16.3948 74.0794 18.2105 71.5774 21.4389 68.9079L33.1153 59.2467C28.0858 59.0961 23.0605 58.9456 18.0331 58.795C11.741 61.7657 6.29207 64.3388 0 67.3095C5.75156 70.4078 10.3407 73.1317 16.0901 76.2279Z" fill="black"/>
<path fill-rule="evenodd" clip-rule="evenodd" d="M35.5465 89.1778L47.7279 86.6737C45.8455 89.7386 43.4184 93.4833 41.536 96.5461C40.4487 98.1904 38.9336 99.6026 36.9072 100.73C31.7964 102.975 26.6834 105.218 21.5725 107.462C22.0149 101.228 22.4574 94.9959 22.9019 88.7595C23.2525 89.0085 23.72 89.2113 24.3043 89.3661C26.5749 89.8264 29.9536 90.2406 35.5465 89.1778Z" fill="black"/>
<path fill-rule="evenodd" clip-rule="evenodd" d="M50.0548 85.7742L71.548 76.8286C71.5501 77.6256 71.6523 78.5147 71.8777 79.5063L45.4072 90.383C45.8914 89.4143 45.8455 87.9289 46.3296 86.9582C46.3296 86.9582 47.6653 86.7491 50.0548 85.7742Z" fill="black"/>
<path fill-rule="evenodd" clip-rule="evenodd" d="M146.83 39.5627C138.741 47.4037 133.262 50.1673 122.223 54.9372L121.031 55.4519C121.724 55.8431 122.367 56.2615 122.932 56.7176C123.421 57.113 123.853 57.5397 124.205 58.0042C133.966 53.9288 143.271 49.1758 150.315 41.1402C157.051 33.454 161.645 23.4268 163.924 12.3054C159.449 23.9163 153.787 32.818 146.83 39.5627Z" fill="black"/>
<path fill-rule="evenodd" clip-rule="evenodd" d="M72.9588 82.0062C69.0562 83.3974 65.2685 84.7217 61.6122 85.9874V85.9832C61.6122 85.9832 54.4624 88.4476 53.5358 88.7677C53.5358 88.7677 61.0132 87.0773 61.8084 86.8828L67.5098 85.5837C69.5654 84.9163 71.6231 84.249 73.6809 83.5837L74.0064 83.4644C73.7122 83.092 73.445 82.7322 73.205 82.3807C73.1195 82.2573 73.036 82.1317 72.9588 82.0062Z" fill="black"/>
<path fill-rule="evenodd" clip-rule="evenodd" d="M133.463 0.51887C117.341 0.9582 86.7825 15.4163 54.6064 37.2239C45.9477 43.0921 37.7441 49.5419 28.9853 56.3348C53.7257 37.8787 99.0265 6.47278 130.067 2.59202C143.052 0.966499 152.625 5.27204 162.323 11.2992L162.327 11.3013H162.325C162.857 11.6318 163.389 11.9645 163.921 12.3076C156.106 5.5963 147.105 0.146485 133.463 0.51887Z" fill="black"/>
<path fill-rule="evenodd" clip-rule="evenodd" d="M128.056 7.02715C116.022 8.433 98.8867 16.5879 87.7384 21.9394C67.921 31.4519 47.6862 44.1067 28.6702 58.9728L33.1153 59.2468C50.3199 47.3556 68.3759 36.3179 87.8406 26.6945C99.9949 20.6841 118.239 11.6339 131.624 9.82008C141.491 8.48326 151.809 9.3975 162.325 11.3013C148.996 7.01256 137.774 5.88907 128.056 7.02715Z" fill="black"/>
<path fill-rule="evenodd" clip-rule="evenodd" d="M163.921 12.3054C161.983 31.5355 153.754 45.8975 136.247 55.3766C132.553 57.2824 128.815 59.1213 125.059 60.8954L124.965 63.2636C128.139 61.7699 130.658 60.4791 132.847 59.2929C148.063 52.1779 164.662 39.3724 163.921 12.3054Z" fill="black"/>
<path fill-rule="evenodd" clip-rule="evenodd" d="M142.357 12.3807C126.797 14.3472 115.718 19.6088 101.742 25.9665C75.605 37.8577 50.3867 50.8473 27.8521 67.0711C18.6884 72.5377 14.9069 77.0586 15.4244 81.6778C17.0501 78.5837 20.2515 76.0753 25.9926 72.9833C51.6847 58.3096 76.8592 43.4958 103.532 31.7741C116.371 25.1527 130.408 19.4958 146.322 15.7406C152.026 14.3933 157.531 13.0104 163.924 12.3054C156.536 11.4016 149.363 11.4958 142.357 12.3807Z" fill="black"/>
<path fill-rule="evenodd" clip-rule="evenodd" d="M36.8926 71.9415C36.8926 71.9415 36.7695 72.0042 36.5483 72.113C35.7824 72.4938 35.0165 72.8746 34.2485 73.2553C32.1574 74.3223 30.0684 75.3913 28.044 76.454C28.0524 76.4603 28.0607 76.4687 28.0691 76.475C24.8072 78.1988 21.3596 80.0837 19.1078 81.4958L19.1099 81.5021C18.1207 82.1234 17.1858 82.7406 16.3281 83.3536C16.6161 83.9749 16.9041 84.5962 17.19 85.2176C18.2522 84.8975 19.3291 84.5503 20.4205 84.1779C20.4185 84.1737 20.4164 84.1695 20.4143 84.1632C22.6201 83.3724 30.7049 80.4163 38.6456 76.8096C44.2699 74.3097 49.9735 71.6716 55.5768 69.2092C65.905 64.4164 76.2353 59.6277 86.5634 54.8348C92.6301 51.8495 98.6947 48.862 104.759 45.8745C126.472 35.6319 146.809 24.7344 163.921 12.3076C146.375 19.3787 129.604 25.8369 112.65 34.2699C87.3982 46.8285 62.1444 59.385 36.8926 71.9415Z" fill="black"/>
<path fill-rule="evenodd" clip-rule="evenodd" d="M127.202 41.7092C97.3236 57.728 72.0217 69.0377 49.1574 77.9101C45.4594 79.3473 41.824 80.7176 38.2428 82.0356C36.2456 82.8117 34.3048 83.5042 32.4266 84.1151C30.2395 84.7406 23.4987 86.6381 21.1322 86.9121C21.1322 86.9121 21.1363 86.9206 21.1384 86.9248C20.1659 87.0796 19.2101 87.2134 18.2794 87.3118C19.6442 88.272 21.393 88.6925 23.3088 88.7803C23.3798 88.795 23.4528 88.8034 23.5238 88.8034L23.6114 88.793C23.6281 88.7951 23.6427 88.795 23.6594 88.795C23.6594 88.795 23.6552 88.7908 23.6511 88.7908L23.8222 88.772C23.8222 88.772 29.1168 88.6527 37.621 86.1255C48.0785 83.0147 59.9134 79.0502 72.0426 74.0314C72.5977 72.6653 73.539 71.7888 74.5094 71.2511C79.9416 67.7971 84.6351 64.8599 90.4472 62.0712C96.2593 59.2846 102.28 56.8327 108.555 54.7051L108.57 54.7009C110.546 54.1507 112.322 53.7993 114.038 53.7344C114.82 53.7051 115.59 53.7344 116.358 53.8285C117.755 53.1549 119.14 52.4812 120.518 51.8118C139.874 42.3955 152.377 31.0147 163.924 12.3076C153.501 23.7741 140.043 34.6088 127.202 41.7092Z" fill="black"/>
<path fill-rule="evenodd" clip-rule="evenodd" d="M123.544 66.1213C123.187 65.7573 122.815 65.4059 122.415 65.0775C121.918 64.6737 121.369 64.3075 120.743 64.0125C119.837 63.5879 118.961 63.5419 118.018 63.7385C117.058 63.9414 116.027 64.3954 114.835 64.9687C108.741 67.8996 99.519 71.8243 93.8468 74.3076C88.1745 76.7908 82.4292 79.1423 76.0474 81.5481C75.6092 81.7657 75.2231 82.0063 74.9977 82.318C74.812 82.5774 74.7348 82.8934 74.8328 83.3013C75.0895 83.6109 75.3671 83.9267 75.6614 84.2531C77.8234 85.9246 81.3503 85.8599 87.6403 84.0921C96.1153 81.5753 105.387 77.8452 112.005 75C112.055 74.9665 112.107 74.9351 112.16 74.9037C112.41 74.8117 112.696 74.6946 113.023 74.5419C113.023 74.5419 116.886 73.0105 119.869 71.1695C121.597 70.1025 122.31 68.8222 122.736 68.115C123.103 67.5042 123.435 66.7991 123.544 66.1213Z" fill="black"/>
<path fill-rule="evenodd" clip-rule="evenodd" d="M124.965 63.2635C124.965 63.2635 125.163 61.6484 125.059 60.9183C124.94 60.1045 124.305 58.6505 122.792 57.8304C122.792 57.8304 120.104 56.1086 117.473 55.6672C115.104 55.2676 112.742 55.4309 110.601 55.8493C105.659 56.8179 91.4468 63.9455 91.4468 63.9455L90.8499 67.7845C90.8499 67.7845 108.449 59.8472 111.997 59.0292C113.595 58.6569 115.43 58.4497 117.396 58.6191C120.084 58.8555 123.339 61.0271 124.965 63.2635Z" fill="black"/>
<path d="M180.798 120.28C181.111 120.487 181.664 120.703 182.195 120.703C182.963 120.703 183.321 120.318 183.321 119.835C183.321 119.331 183.021 119.052 182.24 118.764C181.195 118.391 180.704 117.812 180.704 117.113C180.704 116.174 181.46 115.402 182.71 115.402C183.298 115.402 183.816 115.571 184.14 115.764L183.875 116.534C183.647 116.389 183.228 116.197 182.685 116.197C182.061 116.197 181.71 116.559 181.71 116.992C181.71 117.473 182.061 117.69 182.819 117.981C183.829 118.364 184.344 118.872 184.344 119.741C184.344 120.764 183.551 121.488 182.169 121.488C181.531 121.488 180.942 121.331 180.533 121.088L180.798 120.28Z" fill="black"/>
<path d="M225.256 120.28C225.569 120.487 226.12 120.703 226.65 120.703C227.418 120.703 227.779 120.318 227.779 119.835C227.779 119.331 227.479 119.052 226.696 118.764C225.65 118.391 225.16 117.812 225.16 117.113C225.16 116.174 225.916 115.402 227.168 115.402C227.756 115.402 228.272 115.571 228.595 115.764L228.33 116.534C228.103 116.389 227.683 116.197 227.141 116.197C226.517 116.197 226.168 116.559 226.168 116.992C226.168 117.473 226.517 117.69 227.274 117.981C228.284 118.364 228.802 118.872 228.802 119.741C228.802 120.764 228.007 121.488 226.625 121.488C225.989 121.488 225.4 121.331 224.991 121.088L225.256 120.28Z" fill="black"/>
<path d="M189.382 113.86V115.534H190.895V116.343H189.382V119.488C189.382 120.209 189.584 120.619 190.175 120.619C190.45 120.619 190.655 120.582 190.786 120.546L190.836 121.343C190.63 121.427 190.306 121.488 189.897 121.488C189.405 121.488 189.008 121.329 188.758 121.042C188.455 120.726 188.349 120.209 188.349 119.523V116.343H187.447V115.534H188.349V114.138L189.382 113.86Z" fill="black"/>
<path d="M199.359 119.776C199.359 120.379 199.372 120.908 199.407 121.364H198.468L198.408 120.414H198.385C198.107 120.883 197.496 121.498 196.463 121.498C195.549 121.498 194.453 120.994 194.453 118.944V115.534H195.511V118.764C195.511 119.87 195.849 120.617 196.809 120.617C197.519 120.617 198.011 120.125 198.205 119.655C198.264 119.5 198.299 119.305 198.299 119.113V115.534H199.359V119.776Z" fill="black"/>
<path d="M207.484 117.908C207.484 117.776 207.471 117.594 207.436 117.462C207.279 116.787 206.703 116.234 205.91 116.234C204.815 116.234 204.168 117.197 204.168 118.485C204.168 119.667 204.744 120.644 205.885 120.644C206.595 120.644 207.244 120.172 207.436 119.379C207.471 119.234 207.484 119.088 207.484 118.92V117.908ZM208.542 112.81V119.86C208.542 120.379 208.554 120.969 208.59 121.366H207.64L207.592 120.356H207.569C207.244 121.004 206.534 121.498 205.585 121.498C204.18 121.498 203.097 120.305 203.097 118.533C203.085 116.594 204.289 115.402 205.706 115.402C206.595 115.402 207.196 115.824 207.461 116.293H207.484V112.81H208.542Z" fill="black"/>
<path d="M212.701 115.534H213.759V121.366H212.701V115.534ZM213.88 113.895C213.893 114.257 213.628 114.546 213.206 114.546C212.835 114.546 212.57 114.257 212.57 113.895C212.57 113.523 212.847 113.234 213.229 113.234C213.628 113.234 213.88 113.523 213.88 113.895Z" fill="black"/>
<path d="M218.567 118.462C218.567 119.741 219.3 120.703 220.335 120.703C221.343 120.703 222.101 119.753 222.101 118.439C222.101 117.45 221.608 116.199 220.358 116.199C219.11 116.199 218.567 117.356 218.567 118.462ZM223.184 118.404C223.184 120.559 221.692 121.5 220.287 121.5C218.711 121.5 217.499 120.343 217.499 118.498C217.499 116.546 218.774 115.402 220.383 115.402C222.055 115.402 223.184 116.619 223.184 118.404Z" fill="black"/>
</g>
<defs>
<clipPath id="clip0_7_135">
<rect width="229" height="121" fill="white" transform="translate(0 0.5)"/>
</clipPath>
</defs>
</svg>
